<mxfile host="app.diagrams.net" modified="2024-05-06T03:54:14.388Z" agent="Mozilla/5.0 (Windows NT 10.0; Win64; x64) AppleWebKit/537.36 (KHTML, like Gecko) Chrome/124.0.0.0 Safari/537.36" etag="jy-AAa-4TTzbAxDbpzgv" version="24.3.1" type="github">
  <diagram name="Trang-1" id="VaEFsSbvHVJes4upNGmi">
    <mxGraphModel dx="1434" dy="738" grid="1" gridSize="10" guides="1" tooltips="1" connect="1" arrows="1" fold="1" page="1" pageScale="1" pageWidth="827" pageHeight="1169" math="0" shadow="0">
      <root>
        <mxCell id="0" />
        <mxCell id="1" parent="0" />
        <mxCell id="7wKQx-JwhtiG0vHvaTes-1" value="" style="rounded=1;whiteSpace=wrap;html=1;" vertex="1" parent="1">
          <mxGeometry x="40" y="80" width="250" height="370" as="geometry" />
        </mxCell>
        <mxCell id="7wKQx-JwhtiG0vHvaTes-2" value="backend" style="text;html=1;align=center;verticalAlign=middle;resizable=0;points=[];autosize=1;strokeColor=none;fillColor=none;" vertex="1" parent="1">
          <mxGeometry x="70" y="100" width="70" height="30" as="geometry" />
        </mxCell>
        <mxCell id="7wKQx-JwhtiG0vHvaTes-4" value="" style="rounded=1;whiteSpace=wrap;html=1;" vertex="1" parent="1">
          <mxGeometry x="390" y="70" width="430" height="300" as="geometry" />
        </mxCell>
        <mxCell id="7wKQx-JwhtiG0vHvaTes-5" value="browser" style="text;html=1;align=center;verticalAlign=middle;resizable=0;points=[];autosize=1;strokeColor=none;fillColor=none;" vertex="1" parent="1">
          <mxGeometry x="414" y="80" width="70" height="30" as="geometry" />
        </mxCell>
        <mxCell id="7wKQx-JwhtiG0vHvaTes-6" value="" style="rounded=1;whiteSpace=wrap;html=1;" vertex="1" parent="1">
          <mxGeometry x="414" y="120" width="386" height="140" as="geometry" />
        </mxCell>
        <mxCell id="7wKQx-JwhtiG0vHvaTes-7" value="web extension" style="text;html=1;align=center;verticalAlign=middle;resizable=0;points=[];autosize=1;strokeColor=none;fillColor=none;" vertex="1" parent="1">
          <mxGeometry x="414" y="130" width="100" height="30" as="geometry" />
        </mxCell>
        <mxCell id="7wKQx-JwhtiG0vHvaTes-8" value="GDB" style="rounded=1;whiteSpace=wrap;html=1;" vertex="1" parent="1">
          <mxGeometry x="430" y="175" width="120" height="60" as="geometry" />
        </mxCell>
        <mxCell id="7wKQx-JwhtiG0vHvaTes-9" value="GDB-server&amp;nbsp;" style="rounded=1;whiteSpace=wrap;html=1;" vertex="1" parent="1">
          <mxGeometry x="600" y="175" width="120" height="60" as="geometry" />
        </mxCell>
        <mxCell id="7wKQx-JwhtiG0vHvaTes-10" value="vscode extension&amp;nbsp;" style="rounded=1;whiteSpace=wrap;html=1;" vertex="1" parent="1">
          <mxGeometry x="60" y="160" width="210" height="130" as="geometry" />
        </mxCell>
        <mxCell id="7wKQx-JwhtiG0vHvaTes-16" style="edgeStyle=orthogonalEdgeStyle;rounded=0;orthogonalLoop=1;jettySize=auto;html=1;" edge="1" parent="1" source="7wKQx-JwhtiG0vHvaTes-11" target="7wKQx-JwhtiG0vHvaTes-6">
          <mxGeometry relative="1" as="geometry" />
        </mxCell>
        <mxCell id="7wKQx-JwhtiG0vHvaTes-11" value="command, args&amp;nbsp;" style="rounded=1;whiteSpace=wrap;html=1;" vertex="1" parent="1">
          <mxGeometry x="404" y="310" width="386" height="50" as="geometry" />
        </mxCell>
        <mxCell id="7wKQx-JwhtiG0vHvaTes-12" value="command, args&amp;nbsp;" style="rounded=1;whiteSpace=wrap;html=1;" vertex="1" parent="1">
          <mxGeometry x="50" y="340" width="190" height="60" as="geometry" />
        </mxCell>
        <mxCell id="7wKQx-JwhtiG0vHvaTes-14" value="" style="endArrow=classic;startArrow=classic;html=1;rounded=0;entryX=0.219;entryY=1.015;entryDx=0;entryDy=0;entryPerimeter=0;" edge="1" parent="1" target="7wKQx-JwhtiG0vHvaTes-10">
          <mxGeometry width="50" height="50" relative="1" as="geometry">
            <mxPoint x="100" y="340" as="sourcePoint" />
            <mxPoint x="150" y="290" as="targetPoint" />
          </mxGeometry>
        </mxCell>
        <mxCell id="7wKQx-JwhtiG0vHvaTes-15" value="" style="endArrow=classic;startArrow=classic;html=1;rounded=0;entryX=0;entryY=0.5;entryDx=0;entryDy=0;" edge="1" parent="1" target="7wKQx-JwhtiG0vHvaTes-11">
          <mxGeometry width="50" height="50" relative="1" as="geometry">
            <mxPoint x="270" y="230" as="sourcePoint" />
            <mxPoint x="320" y="180" as="targetPoint" />
          </mxGeometry>
        </mxCell>
        <mxCell id="7wKQx-JwhtiG0vHvaTes-17" value="" style="endArrow=classic;startArrow=classic;html=1;rounded=0;entryX=0;entryY=0.5;entryDx=0;entryDy=0;" edge="1" parent="1" target="7wKQx-JwhtiG0vHvaTes-6">
          <mxGeometry width="50" height="50" relative="1" as="geometry">
            <mxPoint x="240" y="380" as="sourcePoint" />
            <mxPoint x="290" y="330" as="targetPoint" />
          </mxGeometry>
        </mxCell>
      </root>
    </mxGraphModel>
  </diagram>
</mxfile>
